<?xml version="1.0" encoding="UTF-8" standalone="no"?>
<!-- Created with Inkscape (http://www.inkscape.org/) -->

<svg
   xmlns:dc="http://purl.org/dc/elements/1.1/"
   xmlns:cc="http://creativecommons.org/ns#"
   xmlns:rdf="http://www.w3.org/1999/02/22-rdf-syntax-ns#"
   xmlns:svg="http://www.w3.org/2000/svg"
   xmlns="http://www.w3.org/2000/svg"
   xmlns:sodipodi="http://sodipodi.sourceforge.net/DTD/sodipodi-0.dtd"
   xmlns:inkscape="http://www.inkscape.org/namespaces/inkscape"
   version="1.1"
   id="elec208"
   xml:space="preserve"
   width="100%"
   height="1024"
   viewBox="0 0 4224 3264"
   sodipodi:docname="208v.svg"
   inkscape:version="0.92.3 (2405546, 2018-03-11)"><metadata
     id="metadata885"><rdf:RDF><cc:Work
         rdf:about=""><dc:format>image/svg+xml</dc:format><dc:type
           rdf:resource="http://purl.org/dc/dcmitype/StillImage" /><dc:title></dc:title></cc:Work></rdf:RDF></metadata><defs
     id="defs883"><clipPath
       clipPathUnits="userSpaceOnUse"
       id="clipPath895"><path
         d="M 1,1050 H 77971 V 105422 H 1 V 1050"
         id="path893"
         inkscape:connector-curvature="0" /></clipPath><clipPath
       clipPathUnits="userSpaceOnUse"
       id="clipPath911"><path
         d="M 1,1050 H 77971 V 105422 H 1 V 1050"
         id="path909"
         inkscape:connector-curvature="0" /></clipPath><clipPath
       clipPathUnits="userSpaceOnUse"
       id="clipPath923"><path
         d="M 1,1050 H 77971 V 105422 H 1 V 1050"
         id="path921"
         inkscape:connector-curvature="0" /></clipPath></defs><sodipodi:namedview
     pagecolor="#ffffff"
     bordercolor="#666666"
     borderopacity="1"
     objecttolerance="10"
     gridtolerance="10"
     guidetolerance="10"
     inkscape:pageopacity="0"
     inkscape:pageshadow="2"
     inkscape:window-width="1920"
     inkscape:window-height="1027"
     id="namedview881"
     showgrid="false"
     inkscape:zoom="0.76871078"
     inkscape:cx="1366.2011"
     inkscape:cy="2525.9309"
     inkscape:window-x="-8"
     inkscape:window-y="-8"
     inkscape:window-maximized="1"
     inkscape:current-layer="g887" /><g
     id="g887"
     inkscape:groupmode="layer"
     inkscape:label="208v"
     transform="matrix(0,-0.04,-0.04,0,4221.3333,3261.3333)"><g
       id="g889"><g
         id="g891"
         clip-path="url(#clipPath895)"><g
           id="g897"
           transform="rotate(-90,47700,-24389.5)"><path
             d="M 284.5,0 C 284.5,157.12502 157.12502,284.5 0,284.5 -157.12502,284.5 -284.5,157.12502 -284.5,0 c 0,-157.12502 127.37498,-284.5 284.5,-284.5 157.12502,0 284.5,127.37498 284.5,284.5"
             style="fill:none;stroke:#ffbf00;stroke-width:24;stroke-linecap:round;stroke-linejoin:round;stroke-miterlimit:10;stroke-dasharray:none;stroke-opacity:1"
             id="path899"
             inkscape:connector-curvature="0" /></g><path
           d="m 72358,23310 -404,234 v -468 l 404,234"
           style="fill:none;stroke:#ffbf00;stroke-width:24;stroke-linecap:round;stroke-linejoin:round;stroke-miterlimit:10;stroke-dasharray:none;stroke-opacity:1"
           id="path901"
           inkscape:connector-curvature="0" /><path
           d="m 72356,21655 v 1257 h -539 v -1257 h 539"
           style="fill:none;stroke:#ffbf00;stroke-width:24;stroke-linecap:round;stroke-linejoin:round;stroke-miterlimit:10;stroke-dasharray:none;stroke-opacity:1"
           id="path903"
           inkscape:connector-curvature="0" /></g></g><g
       id="g905"><g
         id="g907"
         clip-path="url(#clipPath911)"><text
           transform="matrix(0,-1,-1,0,71944,22843)"
           style="font-variant:normal;font-weight:normal;font-size:442.48699951px;font-family:Arial;-inkscape-font-specification:ArialMT;writing-mode:lr-tb;fill:#ffbf00;fill-opacity:1;fill-rule:nonzero;stroke:none"
           id="text915"><tspan
             x="0 246.02277 492.04553 615.05695 861.07971"
             y="0"
             sodipodi:role="line"
             id="tspan913">28,30</tspan></text>
</g></g><g
       id="g917"><g
         id="g919"
         clip-path="url(#clipPath923)"><path
           d="m 55035,85803 v 1586 h -538 v -1586 h 538"
           style="fill:none;stroke:#ffbf00;stroke-width:24;stroke-linecap:round;stroke-linejoin:round;stroke-miterlimit:10;stroke-dasharray:none;stroke-opacity:1"
           id="path925"
           inkscape:connector-curvature="0" /><text
           transform="matrix(0,-1,-1,0,54638,87258)"
           style="font-variant:normal;font-weight:normal;font-size:442.48699951px;font-family:Arial;-inkscape-font-specification:ArialMT;writing-mode:lr-tb;fill:#ffbf00;fill-opacity:1;fill-rule:nonzero;stroke:none"
           id="text929"><tspan
             x="0 319.47562 565.49841 688.50977 934.53253 1057.5439"
             y="0"
             sodipodi:role="line"
             id="tspan927">H1,3,5</tspan></text>
<g
           id="g931"
           transform="rotate(180,31563.25,31490.75)"><path
             d="M 284.5,0 C 284.5,157.12502 157.12502,284.5 0,284.5 -157.12502,284.5 -284.5,157.12502 -284.5,0 c 0,-157.12502 127.37498,-284.5 284.5,-284.5 157.12502,0 284.5,127.37498 284.5,284.5"
             style="fill:none;stroke:#ffbf00;stroke-width:24;stroke-linecap:round;stroke-linejoin:round;stroke-miterlimit:10;stroke-dasharray:none;stroke-opacity:1"
             id="path933"
             inkscape:connector-curvature="0" /></g><path
           d="m 63126,62711 234,404 h -467 l 233,-404"
           style="fill:none;stroke:#ffbf00;stroke-width:24;stroke-linecap:round;stroke-linejoin:round;stroke-miterlimit:10;stroke-dasharray:none;stroke-opacity:1"
           id="path935"
           inkscape:connector-curvature="0" /><path
           d="m 62640,62703 v 1892 h -538 v -1892 h 538"
           style="fill:none;stroke:#ffbf00;stroke-width:24;stroke-linecap:round;stroke-linejoin:round;stroke-miterlimit:10;stroke-dasharray:none;stroke-opacity:1"
           id="path937"
           inkscape:connector-curvature="0" /><text
           transform="matrix(0,-1,-1,0,62242,64517)"
           style="font-variant:normal;font-weight:normal;font-size:442.48699951px;font-family:Arial;-inkscape-font-specification:ArialMT;writing-mode:lr-tb;fill:#ffbf00;fill-opacity:1;fill-rule:nonzero;stroke:none"
           id="text941"><tspan
             x="0 246.02277 492.04553 639.39374 885.4165 1131.4392 1254.4507 1500.4734"
             y="0"
             sodipodi:role="line"
             id="tspan939">L3-36,39</tspan></text>
<g
           id="g943"
           transform="rotate(90,1359,56311.5)"><path
             d="m 215.5,0 c 0,119.01737 -96.48263,215.5 -215.5,215.5 -119.01737,0 -215.5,-96.48263 -215.5,-215.5 0,-119.01737 96.48263,-215.5 215.5,-215.5 119.01737,0 215.5,96.48263 215.5,215.5"
             style="fill:none;stroke:#ffbf00;stroke-width:24;stroke-linecap:round;stroke-linejoin:round;stroke-miterlimit:10;stroke-dasharray:none;stroke-opacity:1"
             id="path945"
             inkscape:connector-curvature="0" /></g><path
           d="m 57357,54864 h 625"
           style="fill:none;stroke:#ffbf00;stroke-width:24;stroke-linecap:round;stroke-linejoin:round;stroke-miterlimit:10;stroke-dasharray:none;stroke-opacity:1"
           id="path947"
           inkscape:connector-curvature="0" /><path
           d="m 57357,55045 h 625"
           style="fill:none;stroke:#ffbf00;stroke-width:24;stroke-linecap:round;stroke-linejoin:round;stroke-miterlimit:10;stroke-dasharray:none;stroke-opacity:1"
           id="path949"
           inkscape:connector-curvature="0" /><path
           d="m 57164,54242 v 2626 h -539 v -2626 h 539"
           style="fill:none;stroke:#ffbf00;stroke-width:24;stroke-linecap:round;stroke-linejoin:round;stroke-miterlimit:10;stroke-dasharray:none;stroke-opacity:1"
           id="path951"
           inkscape:connector-curvature="0" /><text
           transform="matrix(0,-1,-1,0,56736,56666)"
           style="font-variant:normal;font-weight:normal;font-size:442.48699951px;font-family:Arial;-inkscape-font-specification:ArialMT;writing-mode:lr-tb;fill:#ffbf00;fill-opacity:1;fill-rule:nonzero;stroke:none"
           id="text955"><tspan
             x="0 344.25488 491.60306 737.62585 983.64862 1106.66 1352.6827 1598.7056 1721.7169 1967.7397"
             y="0"
             sodipodi:role="line"
             id="tspan953">G-38,40,42</tspan></text>
<g
           id="g957"><path
             d="m 71077,99304 v 2327 l -1061,-2327 z m 0,2327 -1061,-2327 v 2327 z"
             style="fill:#ffbf00;fill-opacity:1;fill-rule:nonzero;stroke:#ffbf00;stroke-width:25;stroke-linecap:round;stroke-linejoin:miter;stroke-miterlimit:10;stroke-dasharray:none;stroke-opacity:1"
             id="path959"
             inkscape:connector-curvature="0" /></g><path
           d="m 71077,99304 v 2327 h -1061 v -2327 h 1061"
           style="fill:none;stroke:#ffbf00;stroke-width:24;stroke-linecap:round;stroke-linejoin:round;stroke-miterlimit:10;stroke-dasharray:none;stroke-opacity:1"
           id="path961"
           inkscape:connector-curvature="0" /><path
           d="m 63582,80694 v 2265 h -1050 v -2265 h 1050"
           style="fill:none;stroke:#ffbf00;stroke-width:24;stroke-linecap:round;stroke-linejoin:round;stroke-miterlimit:10;stroke-dasharray:none;stroke-opacity:1"
           id="path963"
           inkscape:connector-curvature="0" /><text
           transform="matrix(0,-1,-1,0,63145,82856)"
           style="font-variant:normal;font-weight:normal;font-size:442.48699951px;font-family:Arial;-inkscape-font-specification:ArialMT;writing-mode:lr-tb;fill:#ffbf00;fill-opacity:1;fill-rule:nonzero;stroke:none"
           id="text967"><tspan
             x="0 246.02277 492.04553 639.39374 885.4165 1131.4392 1254.4507 1500.4734 1746.4962"
             y="0"
             sodipodi:role="line"
             id="tspan965">L2-40,42A</tspan></text>
<text
           transform="matrix(0,-1,-1,0,62617,82463)"
           style="font-variant:normal;font-weight:normal;font-size:442.48699951px;font-family:Arial;-inkscape-font-specification:ArialMT;writing-mode:lr-tb;fill:#ffbf00;fill-opacity:1;fill-rule:nonzero;stroke:none"
           id="text971"><tspan
             x="0 246.02277 492.04553 738.0683 861.07971 1107.1024"
             y="0"
             sodipodi:role="line"
             id="tspan969">heater</tspan></text>
<path
           d="m 64523,71336.5 c 0,119.016 -96.484,215.5 -215.5,215.5 -119.016,0 -215.5,-96.484 -215.5,-215.5 0,-119.016 96.484,-215.5 215.5,-215.5 119.016,0 215.5,96.484 215.5,215.5"
           style="fill:none;stroke:#ffbf00;stroke-width:24;stroke-linecap:round;stroke-linejoin:round;stroke-miterlimit:10;stroke-dasharray:none;stroke-opacity:1"
           id="path973"
           inkscape:connector-curvature="0" /><path
           d="m 64219,71648 v -625"
           style="fill:none;stroke:#ffbf00;stroke-width:24;stroke-linecap:round;stroke-linejoin:round;stroke-miterlimit:10;stroke-dasharray:none;stroke-opacity:1"
           id="path975"
           inkscape:connector-curvature="0" /><path
           d="m 64400,71648 v -625"
           style="fill:none;stroke:#ffbf00;stroke-width:24;stroke-linecap:round;stroke-linejoin:round;stroke-miterlimit:10;stroke-dasharray:none;stroke-opacity:1"
           id="path977"
           inkscape:connector-curvature="0" /><path
           d="m 65267,70284 v 1408 h -539 v -1408 h 539"
           style="fill:none;stroke:#ffbf00;stroke-width:24;stroke-linecap:round;stroke-linejoin:round;stroke-miterlimit:10;stroke-dasharray:none;stroke-opacity:1"
           id="path979"
           inkscape:connector-curvature="0" /><text
           transform="matrix(0,-1,-1,0,64869,71614)"
           style="font-variant:normal;font-weight:normal;font-size:442.48699951px;font-family:Arial;-inkscape-font-specification:ArialMT;writing-mode:lr-tb;fill:#ffbf00;fill-opacity:1;fill-rule:nonzero;stroke:none"
           id="text983"><tspan
             x="0 246.02277 492.04553 639.39374 885.4165 1008.4279"
             y="0"
             sodipodi:role="line"
             id="tspan981">L2-6,8</tspan></text>
<g
           id="g985"
           transform="rotate(-90,63825.5,7488)"><path
             d="M 284.5,0 C 284.5,157.12502 157.12502,284.5 0,284.5 -157.12502,284.5 -284.5,157.12502 -284.5,0 c 0,-157.12502 127.37498,-284.5 284.5,-284.5 157.12502,0 284.5,127.37498 284.5,284.5"
             style="fill:none;stroke:#ffbf00;stroke-width:24;stroke-linecap:round;stroke-linejoin:round;stroke-miterlimit:10;stroke-dasharray:none;stroke-opacity:1"
             id="path987"
             inkscape:connector-curvature="0" /></g><path
           d="m 56606,71313 -404,234 v -468 l 404,234"
           style="fill:none;stroke:#ffbf00;stroke-width:24;stroke-linecap:round;stroke-linejoin:round;stroke-miterlimit:10;stroke-dasharray:none;stroke-opacity:1"
           id="path989"
           inkscape:connector-curvature="0" /><path
           d="m 57335,69524 v 2155 h -538 v -2155 h 538"
           style="fill:none;stroke:#ffbf00;stroke-width:24;stroke-linecap:round;stroke-linejoin:round;stroke-miterlimit:10;stroke-dasharray:none;stroke-opacity:1"
           id="path991"
           inkscape:connector-curvature="0" /><text
           transform="matrix(0,-1,-1,0,56907,71509)"
           style="font-variant:normal;font-weight:normal;font-size:442.48699951px;font-family:Arial;-inkscape-font-specification:ArialMT;writing-mode:lr-tb;fill:#ffbf00;fill-opacity:1;fill-rule:nonzero;stroke:none"
           id="text995"><tspan
             x="0 246.02277 541.16162 787.18439 1082.3232 1229.6714 1475.6941 1598.7056"
             y="0"
             sodipodi:role="line"
             id="tspan993">2P1S-2,4</tspan></text>
<g
           id="g997"
           transform="rotate(90,-987.5,66161)"><path
             d="m 215.5,0 c 0,119.01737 -96.48263,215.5 -215.5,215.5 -119.01737,0 -215.5,-96.48263 -215.5,-215.5 0,-119.01737 96.48263,-215.5 215.5,-215.5 119.01737,0 215.5,96.48263 215.5,215.5"
             style="fill:none;stroke:#ffbf00;stroke-width:24;stroke-linecap:round;stroke-linejoin:round;stroke-miterlimit:10;stroke-dasharray:none;stroke-opacity:1"
             id="path999"
             inkscape:connector-curvature="0" /></g><path
           d="m 64860,67060 h 626"
           style="fill:none;stroke:#ffbf00;stroke-width:24;stroke-linecap:round;stroke-linejoin:round;stroke-miterlimit:10;stroke-dasharray:none;stroke-opacity:1"
           id="path1001"
           inkscape:connector-curvature="0" /><path
           d="m 64860,67242 h 626"
           style="fill:none;stroke:#ffbf00;stroke-width:24;stroke-linecap:round;stroke-linejoin:round;stroke-miterlimit:10;stroke-dasharray:none;stroke-opacity:1"
           id="path1003"
           inkscape:connector-curvature="0" /><path
           d="m 65473,67501 v 2430 h -538 v -2430 h 538"
           style="fill:none;stroke:#ffbf00;stroke-width:24;stroke-linecap:round;stroke-linejoin:round;stroke-miterlimit:10;stroke-dasharray:none;stroke-opacity:1"
           id="path1005"
           inkscape:connector-curvature="0" /><text
           transform="matrix(0,-1,-1,0,65045,69880)"
           style="font-variant:normal;font-weight:normal;font-size:442.48699951px;font-family:Arial;-inkscape-font-specification:ArialMT;writing-mode:lr-tb;fill:#ffbf00;fill-opacity:1;fill-rule:nonzero;stroke:none"
           id="text1009"><tspan
             x="0 246.02277 541.16162 787.18439 1082.3232 1229.6714 1475.6941 1721.7169 1844.7283 2090.751"
             y="0"
             sodipodi:role="line"
             id="tspan1007">2P1S-17,19</tspan></text>
</g></g></g></svg>