<?xml version="1.0" encoding="UTF-8" standalone="no"?>
<!-- Created with Inkscape (http://www.inkscape.org/) -->
<svg 
  xmlns:dc="http://purl.org/dc/elements/1.1/" 
  xmlns:cc="http://creativecommons.org/ns#" 
  xmlns:rdf="http://www.w3.org/1999/02/22-rdf-syntax-ns#" 
  xmlns:svg="http://www.w3.org/2000/svg" 
  xmlns="http://www.w3.org/2000/svg" 
  xmlns:sodipodi="http://sodipodi.sourceforge.net/DTD/sodipodi-0.dtd" 
  xmlns:inkscape="http://www.inkscape.org/namespaces/inkscape" version="1.1" id="text" xml:space="preserve" width="100%" height="1024" viewBox="0 0 4224 3264" sodipodi:docname="text.svg" inkscape:version="0.92.3 (2405546, 2018-03-11)">
  <metadata id="metadata326">
    <rdf:RDF>
      <cc:Work rdf:about="">
        <dc:format>image/svg+xml</dc:format>
        <dc:type rdf:resource="http://purl.org/dc/dcmitype/StillImage" />
        <dc:title></dc:title>
      </cc:Work>
    </rdf:RDF>
  </metadata>
  <defs id="defs324">
    <clipPath clipPathUnits="userSpaceOnUse" id="clipPath336">
      <path d="M 1,1050 H 77971 V 105422 H 1 V 1050" id="path334" inkscape:connector-curvature="0" />
    </clipPath>
    <clipPath clipPathUnits="userSpaceOnUse" id="clipPath344">
      <path d="M 1,1050 H 77971 V 105422 H 1 V 1050" id="path342" inkscape:connector-curvature="0" />
    </clipPath>
    <clipPath clipPathUnits="userSpaceOnUse" id="clipPath356">
      <path d="M 1,1050 H 77971 V 105422 H 1 V 1050" id="path354" inkscape:connector-curvature="0" />
    </clipPath>
  </defs>
  <sodipodi:namedview pagecolor="#ffffff" bordercolor="#666666" borderopacity="1" objecttolerance="10" gridtolerance="10" guidetolerance="10" inkscape:pageopacity="0" inkscape:pageshadow="2" inkscape:window-width="640" inkscape:window-height="480" id="namedview322" showgrid="false" inkscape:zoom="0.067234848" inkscape:cx="550.30986" inkscape:cy="1632" inkscape:window-x="0" inkscape:window-y="0" inkscape:window-maximized="0" inkscape:current-layer="g328" />
  <g id="g328" inkscape:groupmode="layer" inkscape:label="text" transform="matrix(0,-0.04,-0.04,0,4221.3333,3261.3333)">
    <g id="g330">
      <g id="g332" clip-path="url(#clipPath336)" /></g>
    <g id="g338">
      <g id="g340" clip-path="url(#clipPath344)">
        <text transform="matrix(0,-1,-1,0,63381,22621)" style="font-variant:normal;font-weight:normal;font-size:1334.71899414px;font-family:Arial;-inkscape-font-specification:ArialMT;writing-mode:lr-tb;fill:#00b88a;fill-opacity:1;fill-rule:nonzero;stroke:none" id="text348">
          <tspan x="0 890.25757 1853.9247 2224.9766 2967.0803 3857.3379" y="0" sodipodi:role="line" id="tspan346">PD LAB</tspan>
        </text>
      </g>
    </g>
    <g id="g350">
      <g id="g352" clip-path="url(#clipPath356)">
        <text transform="matrix(0,-1,-1,0,61785,21391)" style="font-variant:normal;font-weight:normal;font-size:1334.71899414px;font-family:Arial;-inkscape-font-specification:ArialMT;writing-mode:lr-tb;fill:#00b88a;fill-opacity:1;fill-rule:nonzero;stroke:none" id="text360">
          <tspan x="0 742.10376 1484.2075" y="0" sodipodi:role="line" id="tspan358">135</tspan>
        </text>
        <text transform="matrix(0,-1,-1,0,64356,50733)" style="font-variant:normal;font-weight:normal;font-size:1334.71899414px;font-family:Arial;-inkscape-font-specification:ArialMT;writing-mode:lr-tb;fill:#00b88a;fill-opacity:1;fill-rule:nonzero;stroke:none" id="text364">
          <tspan x="0 371.05188 1409.4633 1780.5151 2522.6189 3412.8765" y="0" sodipodi:role="line" id="tspan362">IO LAB</tspan>
        </text>
        <text transform="matrix(0,-1,-1,0,62760,49711)" style="font-variant:normal;font-weight:normal;font-size:1334.71899414px;font-family:Arial;-inkscape-font-specification:ArialMT;writing-mode:lr-tb;fill:#00b88a;fill-opacity:1;fill-rule:nonzero;stroke:none" id="text368">
          <tspan x="0 742.10376 1484.2075" y="0" sodipodi:role="line" id="tspan366">109</tspan>
        </text>
        <text transform="matrix(0,-1,-1,0,70453,88437)" style="font-variant:normal;font-weight:normal;font-size:1001.03900146px;font-family:Arial;-inkscape-font-specification:ArialMT;writing-mode:lr-tb;fill:#00b88a;fill-opacity:1;fill-rule:nonzero;stroke:none" id="text372">
          <tspan x="0 667.69299 1279.3279 2058.1362 2780.8862 3448.5793 4227.3877" y="0" sodipodi:role="line" id="tspan370">STORAGE</tspan>
        </text>
        <text transform="matrix(0,-1,-1,0,69256,86859)" style="font-variant:normal;font-weight:normal;font-size:1001.03900146px;font-family:Arial;-inkscape-font-specification:ArialMT;writing-mode:lr-tb;fill:#00b88a;fill-opacity:1;fill-rule:nonzero;stroke:none" id="text376">
          <tspan x="0 556.5777 1113.1554" y="0" sodipodi:role="line" id="tspan374">144</tspan>
        </text>
        <text transform="matrix(0,-1,-1,0,62969,69544)" style="font-variant:normal;font-weight:normal;font-size:1001.03900146px;font-family:Arial;-inkscape-font-specification:ArialMT;writing-mode:lr-tb;fill:#00b88a;fill-opacity:1;fill-rule:nonzero;stroke:none" id="text380">
          <tspan x="0 611.63483 1334.385 2002.078 2669.771 3281.4058 3949.0989" y="0" sodipodi:role="line" id="tspan378">FREEZER</tspan>
        </text>
        <text transform="matrix(0,-1,-1,0,61772,67971)" style="font-variant:normal;font-weight:normal;font-size:1001.03900146px;font-family:Arial;-inkscape-font-specification:ArialMT;writing-mode:lr-tb;fill:#00b88a;fill-opacity:1;fill-rule:nonzero;stroke:none" id="text384">
          <tspan x="0 556.5777 1113.1554" y="0" sodipodi:role="line" id="tspan382">141</tspan>
        </text>
        <text transform="matrix(0,-1,-1,0,62968,60581)" style="font-variant:normal;font-weight:normal;font-size:1001.03900146px;font-family:Arial;-inkscape-font-specification:ArialMT;writing-mode:lr-tb;fill:#00b88a;fill-opacity:1;fill-rule:nonzero;stroke:none" id="text388">
          <tspan x="0 667.69299 1279.3279 2058.1362 2780.8862 3448.5793 4227.3877" y="0" sodipodi:role="line" id="tspan386">STORAGE</tspan>
        </text>
        <text transform="matrix(0,-1,-1,0,61771,59004)" style="font-variant:normal;font-weight:normal;font-size:1001.03900146px;font-family:Arial;-inkscape-font-specification:ArialMT;writing-mode:lr-tb;fill:#00b88a;fill-opacity:1;fill-rule:nonzero;stroke:none" id="text392">
          <tspan x="0 556.5777 1113.1554" y="0" sodipodi:role="line" id="tspan390">140</tspan>
        </text>
        <text transform="matrix(0,-1,-1,0,61819,41726)" style="font-variant:normal;font-weight:normal;font-size:1001.03900146px;font-family:Arial;-inkscape-font-specification:ArialMT;writing-mode:lr-tb;fill:#00b88a;fill-opacity:1;fill-rule:nonzero;stroke:none" id="text396">
          <tspan x="0 667.69299 1390.4431 2113.1934 2391.4822 2948.0598 3615.7529" y="0" sodipodi:role="line" id="tspan394">BCC LAB</tspan>
        </text>
        <text transform="matrix(0,-1,-1,0,60622,40441)" style="font-variant:normal;font-weight:normal;font-size:1001.03900146px;font-family:Arial;-inkscape-font-specification:ArialMT;writing-mode:lr-tb;fill:#00b88a;fill-opacity:1;fill-rule:nonzero;stroke:none" id="text400">
          <tspan x="0 556.5777 1113.1554" y="0" sodipodi:role="line" id="tspan398">137</tspan>
        </text>
        <text transform="matrix(0,-1,-1,0,72959,41725)" style="font-variant:normal;font-weight:normal;font-size:1001.03900146px;font-family:Arial;-inkscape-font-specification:ArialMT;writing-mode:lr-tb;fill:#00b88a;fill-opacity:1;fill-rule:nonzero;stroke:none" id="text404">
          <tspan x="0 667.69299 1390.4431 2113.1934 2391.4822 2948.0598 3615.7529" y="0" sodipodi:role="line" id="tspan402">BCC LAB</tspan>
        </text>
        <text transform="matrix(0,-1,-1,0,71762,40440)" style="font-variant:normal;font-weight:normal;font-size:1001.03900146px;font-family:Arial;-inkscape-font-specification:ArialMT;writing-mode:lr-tb;fill:#00b88a;fill-opacity:1;fill-rule:nonzero;stroke:none" id="text408">
          <tspan x="0 556.5777 1113.1554" y="0" sodipodi:role="line" id="tspan406">136</tspan>
        </text>
        <text transform="matrix(0,-1,-1,0,65480,87491)" style="font-variant:normal;font-weight:normal;font-size:1001.03900146px;font-family:Arial;-inkscape-font-specification:ArialMT;writing-mode:lr-tb;fill:#00b88a;fill-opacity:1;fill-rule:nonzero;stroke:none" id="text412">
          <tspan x="0 722.75018 1501.5585 2224.3086 2835.9436 3503.6365 4226.3867 4894.0796 5616.8296 6339.5801" y="0" sodipodi:role="line" id="tspan410">293F</tspan>
        </text>
        <text transform="matrix(0,-1,-1,0,64273,85547)" style="font-variant:normal;font-weight:normal;font-size:1001.03900146px;font-family:Arial;-inkscape-font-specification:ArialMT;writing-mode:lr-tb;fill:#00b88a;fill-opacity:1;fill-rule:nonzero;stroke:none" id="text416">
          <tspan x="0 722.75018 1501.5585 2280.3669" y="0" sodipodi:role="line" id="tspan414">Lab</tspan>
        </text>
        <text transform="matrix(0,-1,-1,0,63076,84858)" style="font-variant:normal;font-weight:normal;font-size:1001.03900146px;font-family:Arial;-inkscape-font-specification:ArialMT;writing-mode:lr-tb;fill:#00b88a;fill-opacity:1;fill-rule:nonzero;stroke:none" id="text420">
          <tspan x="0 556.5777 1113.1554" y="0" sodipodi:role="line" id="tspan418">145</tspan>
        </text>
        <text transform="matrix(0,-1,-1,0,18741,84404)" style="font-variant:normal;font-weight:normal;font-size:1334.71899414px;font-family:Arial;-inkscape-font-specification:ArialMT;writing-mode:lr-tb;fill:#00b88a;fill-opacity:1;fill-rule:nonzero;stroke:none" id="text424">
          <tspan x="0 1111.8209 2002.0785 2373.1304 3336.7976 3707.8494 4449.9531 5340.2109" y="0" sodipodi:role="line" id="tspan422">MAIN LAB</tspan>
        </text>
        <text transform="matrix(0,-1,-1,0,17145,82429)" style="font-variant:normal;font-weight:normal;font-size:1334.71899414px;font-family:Arial;-inkscape-font-specification:ArialMT;writing-mode:lr-tb;fill:#00b88a;fill-opacity:1;fill-rule:nonzero;stroke:none" id="text428">
          <tspan x="0 742.10376 1484.2075" y="0" sodipodi:role="line" id="tspan426">114</tspan>
        </text>
        <text transform="matrix(0,-1,-1,0,42806,36381)" style="font-variant:normal;font-weight:normal;font-size:1001.03900146px;font-family:Arial;-inkscape-font-specification:ArialMT;writing-mode:lr-tb;fill:#00b88a;fill-opacity:1;fill-rule:nonzero;stroke:none" id="text432">
          <tspan x="0 778.80835 1390.4431 2002.078 2280.3669 3003.1169" y="0" sodipodi:role="line" id="tspan430">OFFICE</tspan>
        </text>
        <text transform="matrix(0,-1,-1,0,41609,35414)" style="font-variant:normal;font-weight:normal;font-size:1001.03900146px;font-family:Arial;-inkscape-font-specification:ArialMT;writing-mode:lr-tb;fill:#00b88a;fill-opacity:1;fill-rule:nonzero;stroke:none" id="text436">
          <tspan x="0 556.5777 1113.1554" y="0" sodipodi:role="line" id="tspan434">134</tspan>
        </text>
        <text transform="matrix(0,-1,-1,0,42929,25778)" style="font-variant:normal;font-weight:normal;font-size:1001.03900146px;font-family:Arial;-inkscape-font-specification:ArialMT;writing-mode:lr-tb;fill:#00b88a;fill-opacity:1;fill-rule:nonzero;stroke:none" id="text440">
          <tspan x="0 722.75018 1390.4431 1947.0209 2503.5986 2781.8875 3338.4651 3616.7539 4339.5039 5007.1973 5285.4858 6008.2358 6675.9292 7343.6221 8011.3149 8567.8926 9346.7012 10014.395 10848.26 11515.953 12238.703" y="0" sodipodi:role="line" id="tspan438">CELL LINE DEVELOPMENT</tspan>
        </text>
        <text transform="matrix(0,-1,-1,0,41732,20204)" style="font-variant:normal;font-weight:normal;font-size:1001.03900146px;font-family:Arial;-inkscape-font-specification:ArialMT;writing-mode:lr-tb;fill:#00b88a;fill-opacity:1;fill-rule:nonzero;stroke:none" id="text444">
          <tspan x="0 556.5777 1113.1554" y="0" sodipodi:role="line" id="tspan442">133</tspan>
        </text>
        <text transform="matrix(0,-1,-1,0,29838,17415)" style="font-variant:normal;font-weight:normal;font-size:1334.71899414px;font-family:Arial;-inkscape-font-specification:ArialMT;writing-mode:lr-tb;fill:#00b88a;fill-opacity:1;fill-rule:nonzero;stroke:none" id="text448">
          <tspan x="0 963.66711 2002.0785 2965.7456 3781.259 4671.5166 5635.1836 6525.4414 7489.1084 8452.7754" y="0" sodipodi:role="line" id="tspan446">CONFERENCE</tspan>
        </text>
        <text transform="matrix(0,-1,-1,0,28229,17742)" style="font-variant:normal;font-weight:normal;font-size:1334.71899414px;font-family:Arial;-inkscape-font-specification:ArialMT;writing-mode:lr-tb;fill:#00b88a;fill-opacity:1;fill-rule:nonzero;stroke:none" id="text452">
          <tspan x="0 963.66711 2002.0785 3040.49 4152.311 4523.3628 4967.8242 6079.645 6969.9028 7860.1602 8602.2637 9492.5215" y="0" sodipodi:role="line" id="tspan450">ROOM (MAPLE)</tspan>
        </text>
        <text transform="matrix(0,-1,-1,0,26633,13901)" style="font-variant:normal;font-weight:normal;font-size:1334.71899414px;font-family:Arial;-inkscape-font-specification:ArialMT;writing-mode:lr-tb;fill:#00b88a;fill-opacity:1;fill-rule:nonzero;stroke:none" id="text456">
          <tspan x="0 742.10376 1484.2075" y="0" sodipodi:role="line" id="tspan454">107</tspan>
        </text>
        <text transform="matrix(0,-1,-1,0,6569,38606)" style="font-variant:normal;font-weight:normal;font-size:1001.03900146px;font-family:Arial;-inkscape-font-specification:ArialMT;writing-mode:lr-tb;fill:#00b88a;fill-opacity:1;fill-rule:nonzero;stroke:none" id="text460">
          <tspan x="0 778.80835 1390.4431 2002.078 2280.3669 3003.1169" y="0" sodipodi:role="line" id="tspan458">OFFICE</tspan>
        </text>
        <text transform="matrix(0,-1,-1,0,5371,37640)" style="font-variant:normal;font-weight:normal;font-size:1001.03900146px;font-family:Arial;-inkscape-font-specification:ArialMT;writing-mode:lr-tb;fill:#00b88a;fill-opacity:1;fill-rule:nonzero;stroke:none" id="text464">
          <tspan x="0 556.5777 1113.1554" y="0" sodipodi:role="line" id="tspan462">130</tspan>
        </text>
        <text transform="matrix(0,-1,-1,0,10206,31802)" style="font-variant:normal;font-weight:normal;font-size:1001.03900146px;font-family:Arial;-inkscape-font-specification:ArialMT;writing-mode:lr-tb;fill:#00b88a;fill-opacity:1;fill-rule:nonzero;stroke:none" id="text468">
          <tspan x="0 778.80835 1390.4431 2002.078 2280.3669 3003.1169" y="0" sodipodi:role="line" id="tspan466">OFFICE</tspan>
        </text>
        <text transform="matrix(0,-1,-1,0,9008,30767)" style="font-variant:normal;font-weight:normal;font-size:1001.03900146px;font-family:Arial;-inkscape-font-specification:ArialMT;writing-mode:lr-tb;fill:#00b88a;fill-opacity:1;fill-rule:nonzero;stroke:none" id="text472">
          <tspan x="0 556.5777 1113.1554" y="0" sodipodi:role="line" id="tspan470">131</tspan>
        </text>
        <text transform="matrix(0,-1,-1,0,10219,24926)" style="font-variant:normal;font-weight:normal;font-size:1001.03900146px;font-family:Arial;-inkscape-font-specification:ArialMT;writing-mode:lr-tb;fill:#00b88a;fill-opacity:1;fill-rule:nonzero;stroke:none" id="text476">
          <tspan x="0 778.80835 1390.4431 2002.078 2280.3669 3003.1169" y="0" sodipodi:role="line" id="tspan474">OFFICE</tspan>
        </text>
        <text transform="matrix(0,-1,-1,0,9022,23957)" style="font-variant:normal;font-weight:normal;font-size:1001.03900146px;font-family:Arial;-inkscape-font-specification:ArialMT;writing-mode:lr-tb;fill:#00b88a;fill-opacity:1;fill-rule:nonzero;stroke:none" id="text480">
          <tspan x="0 556.5777 1113.1554" y="0" sodipodi:role="line" id="tspan478">132</tspan>
        </text>
        <text transform="matrix(0,-1,-1,0,10220,18086)" style="font-variant:normal;font-weight:normal;font-size:1001.03900146px;font-family:Arial;-inkscape-font-specification:ArialMT;writing-mode:lr-tb;fill:#00b88a;fill-opacity:1;fill-rule:nonzero;stroke:none" id="text484">
          <tspan x="0 778.80835 1390.4431 2002.078 2280.3669 3003.1169" y="0" sodipodi:role="line" id="tspan482">OFFICE</tspan>
        </text>
        <text transform="matrix(0,-1,-1,0,9023,17120)" style="font-variant:normal;font-weight:normal;font-size:1001.03900146px;font-family:Arial;-inkscape-font-specification:ArialMT;writing-mode:lr-tb;fill:#00b88a;fill-opacity:1;fill-rule:nonzero;stroke:none" id="text488">
          <tspan x="0 556.5777 1113.1554" y="0" sodipodi:role="line" id="tspan486">103</tspan>
        </text>
        <text transform="matrix(0,-1,-1,0,12316,11791)" style="font-variant:normal;font-weight:normal;font-size:1001.03900146px;font-family:Arial;-inkscape-font-specification:ArialMT;writing-mode:lr-tb;fill:#00b88a;fill-opacity:1;fill-rule:nonzero;stroke:none" id="text492">
          <tspan x="0 722.75018 1501.5585 2224.3086 2835.9436 3114.2324 3392.5212 4115.2715" y="0" sodipodi:role="line" id="tspan490">CONF. RM</tspan>
        </text>
        <text transform="matrix(0,-1,-1,0,11119,10199)" style="font-variant:normal;font-weight:normal;font-size:1001.03900146px;font-family:Arial;-inkscape-font-specification:ArialMT;writing-mode:lr-tb;fill:#00b88a;fill-opacity:1;fill-rule:nonzero;stroke:none" id="text496">
          <tspan x="0 556.5777 1113.1554" y="0" sodipodi:role="line" id="tspan494">105</tspan>
        </text>
        <text transform="matrix(0,-1,-1,0,5956,11162)" style="font-variant:normal;font-weight:normal;font-size:1001.03900146px;font-family:Arial;-inkscape-font-specification:ArialMT;writing-mode:lr-tb;fill:#00b88a;fill-opacity:1;fill-rule:nonzero;stroke:none" id="text500">
          <tspan x="0 778.80835 1390.4431 2002.078 2280.3669 3003.1169" y="0" sodipodi:role="line" id="tspan498">OFFICE</tspan>
        </text>
        <text transform="matrix(0,-1,-1,0,4758,10195)" style="font-variant:normal;font-weight:normal;font-size:1001.03900146px;font-family:Arial;-inkscape-font-specification:ArialMT;writing-mode:lr-tb;fill:#00b88a;fill-opacity:1;fill-rule:nonzero;stroke:none" id="text504">
          <tspan x="0 556.5777 1113.1554" y="0" sodipodi:role="line" id="tspan502">104</tspan>
        </text>
        <text transform="matrix(0,-1,-1,0,12425,52013)" style="font-variant:normal;font-weight:normal;font-size:1001.03900146px;font-family:Arial;-inkscape-font-specification:ArialMT;writing-mode:lr-tb;fill:#00b88a;fill-opacity:1;fill-rule:nonzero;stroke:none" id="text508">
          <tspan x="0 722.75018 1501.5585 2169.2515" y="0" sodipodi:role="line" id="tspan506">COPY</tspan>
        </text>
        <text transform="matrix(0,-1,-1,0,11218,52133)" style="font-variant:normal;font-weight:normal;font-size:1001.03900146px;font-family:Arial;-inkscape-font-specification:ArialMT;writing-mode:lr-tb;fill:#00b88a;fill-opacity:1;fill-rule:nonzero;stroke:none" id="text512">
          <tspan x="0 722.75018 1501.5585 2280.3669" y="0" sodipodi:role="line" id="tspan510">ROOM</tspan>
        </text>
        <text transform="matrix(0,-1,-1,0,10021,51441)" style="font-variant:normal;font-weight:normal;font-size:1001.03900146px;font-family:Arial;-inkscape-font-specification:ArialMT;writing-mode:lr-tb;fill:#00b88a;fill-opacity:1;fill-rule:nonzero;stroke:none" id="text516">
          <tspan x="0 556.5777 1113.1554" y="0" sodipodi:role="line" id="tspan514">123</tspan>
        </text>
        <text transform="matrix(0,-1,-1,0,19198,52571)" style="font-variant:normal;font-weight:normal;font-size:1001.03900146px;font-family:Arial;-inkscape-font-specification:ArialMT;writing-mode:lr-tb;fill:#00b88a;fill-opacity:1;fill-rule:nonzero;stroke:none" id="text520">
          <tspan x="0 667.69299 1335.386 2058.1362 2725.8291 3393.5222" y="0" sodipodi:role="line" id="tspan518">SERVER</tspan>
        </text>
        <text transform="matrix(0,-1,-1,0,17991,52055)" style="font-variant:normal;font-weight:normal;font-size:1001.03900146px;font-family:Arial;-inkscape-font-specification:ArialMT;writing-mode:lr-tb;fill:#00b88a;fill-opacity:1;fill-rule:nonzero;stroke:none" id="text524">
          <tspan x="0 722.75018 1501.5585 2280.3669" y="0" sodipodi:role="line" id="tspan522">ROOM</tspan>
        </text>
        <text transform="matrix(0,-1,-1,0,16794,51360)" style="font-variant:normal;font-weight:normal;font-size:1001.03900146px;font-family:Arial;-inkscape-font-specification:ArialMT;writing-mode:lr-tb;fill:#00b88a;fill-opacity:1;fill-rule:nonzero;stroke:none" id="text528">
          <tspan x="0 556.5777 1113.1554" y="0" sodipodi:role="line" id="tspan526">122</tspan>
        </text>
        <text transform="matrix(0,-1,-1,0,24980,49557)" style="font-variant:normal;font-weight:normal;font-size:1001.03900146px;font-family:Arial;-inkscape-font-specification:ArialMT;writing-mode:lr-tb;fill:#00b88a;fill-opacity:1;fill-rule:nonzero;stroke:none" id="text532">
          <tspan x="0 556.5777 1279.3279 2002.078 2724.8281" y="0" sodipodi:role="line" id="tspan530">LUNCH</tspan>
        </text>
        <text transform="matrix(0,-1,-1,0,23773,49395)" style="font-variant:normal;font-weight:normal;font-size:1001.03900146px;font-family:Arial;-inkscape-font-specification:ArialMT;writing-mode:lr-tb;fill:#00b88a;fill-opacity:1;fill-rule:nonzero;stroke:none" id="text536">
          <tspan x="0 722.75018 1501.5585 2280.3669" y="0" sodipodi:role="line" id="tspan534">ROOM</tspan>
        </text>
        <text transform="matrix(0,-1,-1,0,22576,48634)" style="font-variant:normal;font-weight:normal;font-size:1001.03900146px;font-family:Arial;-inkscape-font-specification:ArialMT;writing-mode:lr-tb;fill:#00b88a;fill-opacity:1;fill-rule:nonzero;stroke:none" id="text540">
          <tspan x="0 556.5777 1113.1554" y="0" sodipodi:role="line" id="tspan538">121</tspan>
        </text>
        <text transform="matrix(0,-1,-1,0,10949,65049)" style="font-variant:normal;font-weight:normal;font-size:1001.03900146px;font-family:Arial;-inkscape-font-specification:ArialMT;writing-mode:lr-tb;fill:#00b88a;fill-opacity:1;fill-rule:nonzero;stroke:none" id="text544">
          <tspan x="0 778.80835 1390.4431 2002.078 2280.3669 3003.1169" y="0" sodipodi:role="line" id="tspan542">OFFICE</tspan>
        </text>
        <text transform="matrix(0,-1,-1,0,9752,64084)" style="font-variant:normal;font-weight:normal;font-size:1001.03900146px;font-family:Arial;-inkscape-font-specification:ArialMT;writing-mode:lr-tb;fill:#00b88a;fill-opacity:1;fill-rule:nonzero;stroke:none" id="text548">
          <tspan x="0 556.5777 1113.1554" y="0" sodipodi:role="line" id="tspan546">153</tspan>
        </text>
        <text transform="matrix(0,-1,-1,0,18351,65039)" style="font-variant:normal;font-weight:normal;font-size:1001.03900146px;font-family:Arial;-inkscape-font-specification:ArialMT;writing-mode:lr-tb;fill:#00b88a;fill-opacity:1;fill-rule:nonzero;stroke:none" id="text552">
          <tspan x="0 778.80835 1390.4431 2002.078 2280.3669 3003.1169" y="0" sodipodi:role="line" id="tspan550">OFFICE</tspan>
        </text>
        <text transform="matrix(0,-1,-1,0,17154,64005)" style="font-variant:normal;font-weight:normal;font-size:1001.03900146px;font-family:Arial;-inkscape-font-specification:ArialMT;writing-mode:lr-tb;fill:#00b88a;fill-opacity:1;fill-rule:nonzero;stroke:none" id="text556">
          <tspan x="0 556.5777 1113.1554" y="0" sodipodi:role="line" id="tspan554">131</tspan>
        </text>
        <text transform="matrix(0,-1,-1,0,8903,58616)" style="font-variant:normal;font-weight:normal;font-size:1001.03900146px;font-family:Arial;-inkscape-font-specification:ArialMT;writing-mode:lr-tb;fill:#00b88a;fill-opacity:1;fill-rule:nonzero;stroke:none" id="text560">
          <tspan x="0 778.80835 1390.4431 2002.078 2280.3669 3003.1169" y="0" sodipodi:role="line" id="tspan558">OFFICE</tspan>
        </text>
        <text transform="matrix(0,-1,-1,0,7706,57649)" style="font-variant:normal;font-weight:normal;font-size:1001.03900146px;font-family:Arial;-inkscape-font-specification:ArialMT;writing-mode:lr-tb;fill:#00b88a;fill-opacity:1;fill-rule:nonzero;stroke:none" id="text564">
          <tspan x="0 556.5777 1113.1554" y="0" sodipodi:role="line" id="tspan562">154</tspan>
        </text>
        <text transform="matrix(0,-1,-1,0,16337,58620)" style="font-variant:normal;font-weight:normal;font-size:1001.03900146px;font-family:Arial;-inkscape-font-specification:ArialMT;writing-mode:lr-tb;fill:#00b88a;fill-opacity:1;fill-rule:nonzero;stroke:none" id="text568">
          <tspan x="0 778.80835 1390.4431 2002.078 2280.3669 3003.1169" y="0" sodipodi:role="line" id="tspan566">OFFICE</tspan>
        </text>
        <text transform="matrix(0,-1,-1,0,15140,57650)" style="font-variant:normal;font-weight:normal;font-size:1001.03900146px;font-family:Arial;-inkscape-font-specification:ArialMT;writing-mode:lr-tb;fill:#00b88a;fill-opacity:1;fill-rule:nonzero;stroke:none" id="text572">
          <tspan x="0 556.5777 1113.1554" y="0" sodipodi:role="line" id="tspan570">152</tspan>
        </text>
        <text transform="matrix(0,-1,-1,0,23738,58615)" style="font-variant:normal;font-weight:normal;font-size:1001.03900146px;font-family:Arial;-inkscape-font-specification:ArialMT;writing-mode:lr-tb;fill:#00b88a;fill-opacity:1;fill-rule:nonzero;stroke:none" id="text576">
          <tspan x="0 778.80835 1390.4431 2002.078 2280.3669 3003.1169" y="0" sodipodi:role="line" id="tspan574">OFFICE</tspan>
        </text>
        <text transform="matrix(0,-1,-1,0,22541,57648)" style="font-variant:normal;font-weight:normal;font-size:1001.03900146px;font-family:Arial;-inkscape-font-specification:ArialMT;writing-mode:lr-tb;fill:#00b88a;fill-opacity:1;fill-rule:nonzero;stroke:none" id="text580">
          <tspan x="0 556.5777 1113.1554" y="0" sodipodi:role="line" id="tspan578">150</tspan>
        </text>
        <text transform="matrix(0,-1,-1,0,25778,65040)" style="font-variant:normal;font-weight:normal;font-size:1001.03900146px;font-family:Arial;-inkscape-font-specification:ArialMT;writing-mode:lr-tb;fill:#00b88a;fill-opacity:1;fill-rule:nonzero;stroke:none" id="text584">
          <tspan x="0 778.80835 1390.4431 2002.078 2280.3669 3003.1169" y="0" sodipodi:role="line" id="tspan582">OFFICE</tspan>
        </text>
        <text transform="matrix(0,-1,-1,0,24581,64076)" style="font-variant:normal;font-weight:normal;font-size:1001.03900146px;font-family:Arial;-inkscape-font-specification:ArialMT;writing-mode:lr-tb;fill:#00b88a;fill-opacity:1;fill-rule:nonzero;stroke:none" id="text588">
          <tspan x="0 556.5777 1113.1554" y="0" sodipodi:role="line" id="tspan586">149</tspan>
        </text>
        <text transform="matrix(0,-1,-1,0,40997,70723)" style="font-variant:normal;font-weight:normal;font-size:1001.03900146px;font-family:Arial;-inkscape-font-specification:ArialMT;writing-mode:lr-tb;fill:#00b88a;fill-opacity:1;fill-rule:nonzero;stroke:none" id="text592">
          <tspan x="0 667.69299 1390.4431 1668.7321 2225.3098 2893.0027 3560.6958 3838.9846 4506.6777 5229.4277 5952.1777 6619.8711" y="0" sodipodi:role="line" id="tspan590">PD LAB ANNEX</tspan>
        </text>
        <text transform="matrix(0,-1,-1,0,39800,67907)" style="font-variant:normal;font-weight:normal;font-size:1001.03900146px;font-family:Arial;-inkscape-font-specification:ArialMT;writing-mode:lr-tb;fill:#00b88a;fill-opacity:1;fill-rule:nonzero;stroke:none" id="text596">
          <tspan x="0 556.5777 1113.1554" y="0" sodipodi:role="line" id="tspan594">112</tspan>
        </text>
        <text transform="matrix(0,-1,-1,0,41977,60529)" style="font-variant:normal;font-weight:normal;font-size:1001.03900146px;font-family:Arial;-inkscape-font-specification:ArialMT;writing-mode:lr-tb;fill:#00b88a;fill-opacity:1;fill-rule:nonzero;stroke:none" id="text600">
          <tspan x="0 667.69299 1390.4431 2169.2515 3114.2324 3781.9253" y="0" sodipodi:role="line" id="tspan598">SHOWER</tspan>
        </text>
        <text transform="matrix(0,-1,-1,0,40780,59128)" style="font-variant:normal;font-weight:normal;font-size:1001.03900146px;font-family:Arial;-inkscape-font-specification:ArialMT;writing-mode:lr-tb;fill:#00b88a;fill-opacity:1;fill-rule:nonzero;stroke:none" id="text604">
          <tspan x="0 556.5777 1113.1554" y="0" sodipodi:role="line" id="tspan602">118</tspan>
        </text>
        <text transform="matrix(0,-1,-1,0,31907,60488)" style="font-variant:normal;font-weight:normal;font-size:1001.03900146px;font-family:Arial;-inkscape-font-specification:ArialMT;writing-mode:lr-tb;fill:#00b88a;fill-opacity:1;fill-rule:nonzero;stroke:none" id="text608">
          <tspan x="0 667.69299 1390.4431 2169.2515 3114.2324 3781.9253" y="0" sodipodi:role="line" id="tspan606">SHOWER</tspan>
        </text>
        <text transform="matrix(0,-1,-1,0,30709,59086)" style="font-variant:normal;font-weight:normal;font-size:1001.03900146px;font-family:Arial;-inkscape-font-specification:ArialMT;writing-mode:lr-tb;fill:#00b88a;fill-opacity:1;fill-rule:nonzero;stroke:none" id="text612">
          <tspan x="0 556.5777 1113.1554" y="0" sodipodi:role="line" id="tspan610">117</tspan>
        </text>
        <text transform="matrix(0,-1,-1,0,43124,50196)" style="font-variant:normal;font-weight:normal;font-size:1001.03900146px;font-family:Arial;-inkscape-font-specification:ArialMT;writing-mode:lr-tb;fill:#00b88a;fill-opacity:1;fill-rule:nonzero;stroke:none" id="text616">
          <tspan x="0 944.98083 1723.7892 2557.6545 3225.3477 3948.0979 4139.2964" y="0" sodipodi:role="line" id="tspan614">WOMEN'S</tspan>
        </text>
        <text transform="matrix(0,-1,-1,0,41927,48681)" style="font-variant:normal;font-weight:normal;font-size:1001.03900146px;font-family:Arial;-inkscape-font-specification:ArialMT;writing-mode:lr-tb;fill:#00b88a;fill-opacity:1;fill-rule:nonzero;stroke:none" id="text620">
          <tspan x="0 556.5777 1113.1554" y="0" sodipodi:role="line" id="tspan618">119</tspan>
        </text>
        <text transform="matrix(0,-1,-1,0,31028,49359)" style="font-variant:normal;font-weight:normal;font-size:1001.03900146px;font-family:Arial;-inkscape-font-specification:ArialMT;writing-mode:lr-tb;fill:#00b88a;fill-opacity:1;fill-rule:nonzero;stroke:none" id="text624">
          <tspan x="0 833.86548 1501.5585 2224.3086 2415.5071" y="0" sodipodi:role="line" id="tspan622">MEN'S</tspan>
        </text>
        <text transform="matrix(0,-1,-1,0,29831,48672)" style="font-variant:normal;font-weight:normal;font-size:1001.03900146px;font-family:Arial;-inkscape-font-specification:ArialMT;writing-mode:lr-tb;fill:#00b88a;fill-opacity:1;fill-rule:nonzero;stroke:none" id="text628">
          <tspan x="0 556.5777 1113.1554" y="0" sodipodi:role="line" id="tspan626">120</tspan>
        </text>
        <text transform="matrix(0,-1,-1,0,25356,36438)" style="font-variant:normal;font-weight:normal;font-size:1001.03900146px;font-family:Arial;-inkscape-font-specification:ArialMT;writing-mode:lr-tb;fill:#00b88a;fill-opacity:1;fill-rule:nonzero;stroke:none" id="text632">
          <tspan x="0 778.80835 1446.5013 2114.1943 2836.9446 3115.2334 3894.0417 4505.6768 5117.3115 5395.6001 6118.3506" y="0" sodipodi:role="line" id="tspan630">OPEN OFFICE</tspan>
        </text>
        <text transform="matrix(0,-1,-1,0,24159,33915)" style="font-variant:normal;font-weight:normal;font-size:1001.03900146px;font-family:Arial;-inkscape-font-specification:ArialMT;writing-mode:lr-tb;fill:#00b88a;fill-opacity:1;fill-rule:nonzero;stroke:none" id="text636">
          <tspan x="0 556.5777 1113.1554" y="0" sodipodi:role="line" id="tspan634">106</tspan>
        </text>
        <text transform="matrix(0,-1,-1,0,39514,88260)" style="font-variant:normal;font-weight:normal;font-size:1334.71899414px;font-family:Arial;-inkscape-font-specification:ArialMT;writing-mode:lr-tb;fill:#00b88a;fill-opacity:1;fill-rule:nonzero;stroke:none" id="text640">
          <tspan x="0 1111.8209 2150.2324 2892.3362 3782.5938 4153.6455 5192.0571 5563.1089 6305.2124 7195.4702" y="0" sodipodi:role="line" id="tspan638">MOLBIO LAB</tspan>
        </text>
        <text transform="matrix(0,-1,-1,0,37918,85359)" style="font-variant:normal;font-weight:normal;font-size:1334.71899414px;font-family:Arial;-inkscape-font-specification:ArialMT;writing-mode:lr-tb;fill:#00b88a;fill-opacity:1;fill-rule:nonzero;stroke:none" id="text644">
          <tspan x="0 742.10376 1484.2075" y="0" sodipodi:role="line" id="tspan642">113</tspan>
        </text>
        <text transform="matrix(0,-1,-1,0,72472,68688)"
         style="font-variant:normal;font-weight:normal;font-size:1001.03900146px;font-family:Arial;-inkscape-font-specification:ArialMT;writing-mode:lr-tb;fill:#00b88a;fill-opacity:1;fill-rule:nonzero;stroke:none" id="text648">
          <tspan x="0 667.69299 1390.4431 1668.7321 2336.425 3004.1179 3282.407 4005.157 4783.9653 5062.2544 5729.9473 6008.2358 6730.9863 7398.6792 8121.4292 8789.1221 9067.4111 9735.1045 10013.394 10736.144" y="0" sodipodi:role="line" id="tspan646">SHIPPING &amp; RECEIVING</tspan>
        </text>
        <text transform="matrix(0,-1,-1,0,71275,63805)" style="font-variant:normal;font-weight:normal;font-size:1001.03900146px;font-family:Arial;-inkscape-font-specification:ArialMT;writing-mode:lr-tb;fill:#00b88a;fill-opacity:1;fill-rule:nonzero;stroke:none" id="text652">
          <tspan x="0 556.5777 1113.1554" y="0" sodipodi:role="line" id="tspan650">110</tspan>
        </text>
        <text transform="matrix(0,-1,-1,0,55653,62900)" style="font-variant:normal;font-weight:normal;font-size:1001.03900146px;font-family:Arial;-inkscape-font-specification:ArialMT;writing-mode:lr-tb;fill:#00b88a;fill-opacity:1;fill-rule:nonzero;stroke:none" id="text656">
          <tspan x="0 667.69299 1390.4431 2002.078 2613.7129 3281.4058 4004.156 4282.4448 4950.1377 5672.8882 6340.5811" y="0" sodipodi:role="line" id="tspan654">BUFFER PREP</tspan>
        </text>
        <text transform="matrix(0,-1,-1,0,54456,60179)" style="font-variant:normal;font-weight:normal;font-size:1001.03900146px;font-family:Arial;-inkscape-font-specification:ArialMT;writing-mode:lr-tb;fill:#00b88a;fill-opacity:1;fill-rule:nonzero;stroke:none" id="text660">
          <tspan x="0 556.5777 1113.1554" y="0" sodipodi:role="line" id="tspan658">111</tspan>
        </text>
        <text transform="matrix(0,-1,-1,0,62947,75712)" style="font-variant:normal;font-weight:normal;font-size:1001.03900146px;font-family:Arial;-inkscape-font-specification:ArialMT;writing-mode:lr-tb;fill:#00b88a;fill-opacity:1;fill-rule:nonzero;stroke:none" id="text664">
          <tspan x="0 722.75018 1390.4431 1947.0209" y="0" sodipodi:role="line" id="tspan662">HALL</tspan>
        </text>
        <text transform="matrix(0,-1,-1,0,61750,75304)" style="font-variant:normal;font-weight:normal;font-size:1001.03900146px;font-family:Arial;-inkscape-font-specification:ArialMT;writing-mode:lr-tb;fill:#00b88a;fill-opacity:1;fill-rule:nonzero;stroke:none" id="text668">
          <tspan x="0 556.5777 1113.1554" y="0" sodipodi:role="line" id="tspan666">147</tspan>
        </text>
        <text transform="matrix(0,-1,-1,0,59355,85263)" style="font-variant:normal;font-weight:normal;font-size:1001.03900146px;font-family:Arial;-inkscape-font-specification:ArialMT;writing-mode:lr-tb;fill:#00b88a;fill-opacity:1;fill-rule:nonzero;stroke:none" id="text672">
          <tspan x="0 722.75018 1390.4431 1947.0209" y="0" sodipodi:role="line" id="tspan670">HALL</tspan>
        </text>
        <text transform="matrix(0,-1,-1,0,58158,84855)" style="font-variant:normal;font-weight:normal;font-size:1001.03900146px;font-family:Arial;-inkscape-font-specification:ArialMT;writing-mode:lr-tb;fill:#00b88a;fill-opacity:1;fill-rule:nonzero;stroke:none" id="text676">
          <tspan x="0 556.5777 1113.1554" y="0" sodipodi:role="line" id="tspan674">146</tspan>
        </text>
        <text transform="matrix(0,-1,-1,0,53985,83866)" style="font-variant:normal;font-weight:normal;font-size:1001.03900146px;font-family:Arial;-inkscape-font-specification:ArialMT;writing-mode:lr-tb;fill:#00b88a;fill-opacity:1;fill-rule:nonzero;stroke:none" id="text680">
          <tspan x="0 778.80835 1335.386 2003.079 2670.772 3338.4651 3616.7539 4561.7349 5229.4277 5897.1206" y="0" sodipodi:role="line" id="tspan678">GLASS WASH</tspan>
        </text>
        <text transform="matrix(0,-1,-1,0,52788,81794)" style="font-variant:normal;font-weight:normal;font-size:1001.03900146px;font-family:Arial;-inkscape-font-specification:ArialMT;writing-mode:lr-tb;fill:#00b88a;fill-opacity:1;fill-rule:nonzero;stroke:none" id="text684">
          <tspan x="0 556.5777 1113.1554 1669.733" y="0" sodipodi:role="line" id="tspan682">110A</tspan>
        </text>
        <text transform="matrix(0,-1,-1,0,46712,46473)" style="font-variant:normal;font-weight:normal;font-size:1001.03900146px;font-family:Arial;-inkscape-font-specification:ArialMT;writing-mode:lr-tb;fill:#00b88a;fill-opacity:1;fill-rule:nonzero;stroke:none" id="text688">
          <tspan x="0 722.75018 1279.3279 2058.1362 2725.8291 3393.5222" y="0" sodipodi:role="line" id="tspan686">CLOSET</tspan>
        </text>
        <text transform="matrix(0,-1,-1,0,45515,45253)" style="font-variant:normal;font-weight:normal;font-size:1001.03900146px;font-family:Arial;-inkscape-font-specification:ArialMT;writing-mode:lr-tb;fill:#00b88a;fill-opacity:1;fill-rule:nonzero;stroke:none" id="text692">
          <tspan x="0 556.5777 1113.1554" y="0" sodipodi:role="line" id="tspan690">121</tspan>
        </text>
        <text transform="matrix(0,-1,-1,0,49331,38405)" style="font-variant:normal;font-weight:normal;font-size:1001.03900146px;font-family:Arial;-inkscape-font-specification:ArialMT;writing-mode:lr-tb;fill:#00b88a;fill-opacity:1;fill-rule:nonzero;stroke:none" id="text696">
          <tspan x="0 722.75018 1390.4431 1947.0209" y="0" sodipodi:role="line" id="tspan694">HALL</tspan>
        </text>
        <text transform="matrix(0,-1,-1,0,48134,37996)" style="font-variant:normal;font-weight:normal;font-size:1001.03900146px;font-family:Arial;-inkscape-font-specification:ArialMT;writing-mode:lr-tb;fill:#00b88a;fill-opacity:1;fill-rule:nonzero;stroke:none" id="text700">
          <tspan x="0 556.5777 1113.1554" y="0" sodipodi:role="line" id="tspan698">120</tspan>
        </text>
        <text transform="matrix(0,-1,-1,0,14993,70180)" style="font-variant:normal;font-weight:normal;font-size:1001.03900146px;font-family:Arial;-inkscape-font-specification:ArialMT;writing-mode:lr-tb;fill:#00b88a;fill-opacity:1;fill-rule:nonzero;stroke:none" id="text704">
          <tspan x="0 722.75018 1390.4431 1947.0209" y="0" sodipodi:role="line" id="tspan702">HALL</tspan>
        </text>
        <text transform="matrix(0,-1,-1,0,13796,69775)" style="font-variant:normal;font-weight:normal;font-size:1001.03900146px;font-family:Arial;-inkscape-font-specification:ArialMT;writing-mode:lr-tb;fill:#00b88a;fill-opacity:1;fill-rule:nonzero;stroke:none" id="text708">
          <tspan x="0 556.5777 1113.1554" y="0" sodipodi:role="line" id="tspan706">155</tspan>
        </text>
        <text transform="matrix(0,-1,-1,0,5337,62440)" style="font-variant:normal;font-weight:normal;font-size:1001.03900146px;font-family:Arial;-inkscape-font-specification:ArialMT;writing-mode:lr-tb;fill:#00b88a;fill-opacity:1;fill-rule:nonzero;stroke:none" id="text712">
          <tspan x="0 722.75018 1390.4431 1947.0209" y="0" sodipodi:role="line" id="tspan710">HALL</tspan>
        </text>
        <text transform="matrix(0,-1,-1,0,4140,62035)" style="font-variant:normal;font-weight:normal;font-size:1001.03900146px;font-family:Arial;-inkscape-font-specification:ArialMT;writing-mode:lr-tb;fill:#00b88a;fill-opacity:1;fill-rule:nonzero;stroke:none" id="text716">
          <tspan x="0 556.5777 1113.1554" y="0" sodipodi:role="line" id="tspan714">115</tspan>
        </text>
        <text transform="matrix(0,-1,-1,0,7365,45773)" style="font-variant:normal;font-weight:normal;font-size:1001.03900146px;font-family:Arial;-inkscape-font-specification:ArialMT;writing-mode:lr-tb;fill:#00b88a;fill-opacity:1;fill-rule:nonzero;stroke:none" id="text720">
          <tspan x="0 944.98083 1612.6738 1890.9626 2502.5974 2780.8862 3503.6365" y="0" sodipodi:role="line" id="tspan718">WAITING</tspan>
        </text>
        <text transform="matrix(0,-1,-1,0,6167,44520)" style="font-variant:normal;font-weight:normal;font-size:1001.03900146px;font-family:Arial;-inkscape-font-specification:ArialMT;writing-mode:lr-tb;fill:#00b88a;fill-opacity:1;fill-rule:nonzero;stroke:none" id="text724">
          <tspan x="0 556.5777 1113.1554" y="0" sodipodi:role="line" id="tspan722">102</tspan>
        </text>
        <text transform="matrix(0,-1,-1,0,72599,82768)" style="font-variant:normal;font-weight:normal;font-size:1001.03900146px;font-family:Arial;-inkscape-font-specification:ArialMT;writing-mode:lr-tb;fill:#00b88a;fill-opacity:1;fill-rule:nonzero;stroke:none" id="text728">
          <tspan x="0 667.69299 1224.2708 1891.9637 2614.7139 3226.3486 3949.0989 4227.3877 4950.1377 5617.8311" y="0" sodipodi:role="line" id="tspan726">ELECTRICAL</tspan>
        </text>
        <text transform="matrix(0,-1,-1,0,71402,80526)" style="font-variant:normal;font-weight:normal;font-size:1001.03900146px;font-family:Arial;-inkscape-font-specification:ArialMT;writing-mode:lr-tb;fill:#00b88a;fill-opacity:1;fill-rule:nonzero;stroke:none" id="text732">
          <tspan x="0 556.5777 1113.1554" y="0" sodipodi:role="line" id="tspan730">143</tspan>
        </text>
        <text transform="matrix(0,-1,-1,0,67023,66381)" style="font-variant:normal;font-weight:normal;font-size:667.35900879px;font-family:Arial;-inkscape-font-specification:ArialMT;writing-mode:lr-tb;fill:#00b88a;fill-opacity:1;fill-rule:nonzero;stroke:none" id="text736">
          <tspan x="0 481.83319 667.35901 852.88483 1482.8717 1928.0001 2335.7566 2780.885" y="0" sodipodi:role="line" id="tspan734">DI WATER</tspan>
        </text>
        <text transform="matrix(0,-1,-1,0,66999,59915)" style="font-variant:normal;font-weight:normal;font-size:667.35900879px;font-family:Arial;-inkscape-font-specification:ArialMT;writing-mode:lr-tb;fill:#00b88a;fill-opacity:1;fill-rule:nonzero;stroke:none" id="text740">
          <tspan x="0 519.20532 964.33374" y="0" sodipodi:role="line" id="tspan738">GAS</tspan>
        </text>
        <text transform="matrix(0,-1,-1,0,53376,90991)" style="font-variant:normal;font-weight:normal;font-size:867.57098389px;font-family:Arial;-inkscape-font-specification:ArialMT;writing-mode:lr-tb;fill:#00b88a;fill-opacity:1;fill-rule:nonzero;stroke:none" id="text744">
          <tspan x="0 578.66986 1205.0562 1735.142 2410.1123 3036.4985 3518.8679 4097.5376 4676.2075" y="0" sodipodi:role="line" id="tspan742">AUTOCLAVE</tspan>
        </text>
        <text transform="matrix(0,-1,-1,0,52307,87928.783)" style="font-variant:normal;font-weight:normal;font-size:867.57098389px;font-family:Arial;-inkscape-font-specification:ArialMT;writing-mode:lr-tb;fill:#00b88a;fill-opacity:1;fill-rule:nonzero;stroke:none" id="text748">
          <tspan x="0 482.36948 964.73895 1447.1084" y="0" sodipodi:role="line" id="tspan746">110B</tspan>
        </text>
        <text transform="matrix(0,-1,-1,0,33422,71105)" style="font-variant:normal;font-weight:normal;font-size:1001.03900146px;font-family:Arial;-inkscape-font-specification:ArialMT;writing-mode:lr-tb;fill:#00b88a;fill-opacity:1;fill-rule:nonzero;stroke:none" id="text752">
          <tspan x="0 778.80835 1390.4431 2002.078 2280.3669 3003.1169" y="0" sodipodi:role="line" id="tspan750">OFFICE</tspan>
        </text>
        <text transform="matrix(0,-1,-1,0,32225,70497)" style="font-variant:normal;font-weight:normal;font-size:1001.03900146px;font-family:Arial;-inkscape-font-specification:ArialMT;writing-mode:lr-tb;fill:#00b88a;fill-opacity:1;fill-rule:nonzero;stroke:none" id="text756">
          <tspan x="0 556.5777 1113.1554 1669.733" y="0" sodipodi:role="line" id="tspan754">148A</tspan>
        </text>
        <text transform="matrix(0,-1,-1,0,35527,65603)" style="font-variant:normal;font-weight:normal;font-size:1001.03900146px;font-family:Arial;-inkscape-font-specification:ArialMT;writing-mode:lr-tb;fill:#00b88a;fill-opacity:1;fill-rule:nonzero;stroke:none" id="text760">
          <tspan x="0 778.80835 1390.4431 2002.078 2280.3669 3003.1169" y="0" sodipodi:role="line" id="tspan758">OFFICE</tspan>
        </text>
        <text transform="matrix(0,-1,-1,0,34330,64967)" style="font-variant:normal;font-weight:normal;font-size:1001.03900146px;font-family:Arial;-inkscape-font-specification:ArialMT;writing-mode:lr-tb;fill:#00b88a;fill-opacity:1;fill-rule:nonzero;stroke:none" id="text764">
          <tspan x="0 556.5777 1113.1554 1669.733" y="0" sodipodi:role="line" id="tspan762">148B</tspan>
        </text>
      </g>
    </g>
  </g>
</svg>